<?xml version="1.0" standalone="no"?>
<!DOCTYPE svg PUBLIC "-//W3C//DTD SVG 20010904//EN"
 "http://www.w3.org/TR/2001/REC-SVG-20010904/DTD/svg10.dtd">
<svg version="1.0" xmlns="http://www.w3.org/2000/svg"
 width="204.000000pt" height="116.000000pt" viewBox="0 0 204.000000 116.000000"
 preserveAspectRatio="xMidYMid meet">

<g transform="translate(0.000000,116.000000) scale(0.100000,-0.100000)"
fill="#000000" stroke="none">
<path d="M855 1082 c44 -21 112 -61 150 -87 39 -27 64 -41 56 -32 -20 25 -142
104 -193 126 -83 36 -92 32 -13 -7z"/>
<path d="M480 1093 c-202 -34 -385 -144 -444 -266 -24 -51 -29 -77 -27 -148 1
-46 41 -89 83 -89 78 0 93 55 25 92 -33 19 -43 29 -45 54 -10 104 320 219 554
193 142 -16 230 -74 281 -187 50 -108 40 -226 -24 -302 -51 -59 -79 -70 -175
-70 -80 1 -227 15 -235 24 -3 2 4 21 15 43 11 21 30 81 42 133 38 167 49 196
95 253 25 30 45 59 45 66 0 16 -48 14 -103 -5 -57 -19 -123 -83 -149 -144 -22
-50 -88 -299 -88 -331 0 -11 -8 -22 -17 -25 -50 -14 -129 -64 -164 -101 -30
-33 -39 -51 -39 -78 0 -33 1 -34 25 -25 14 5 40 17 58 27 38 20 130 22 442 9
174 -8 207 -7 258 8 l57 17 0 45 c0 44 1 46 24 40 34 -8 54 2 71 34 13 25 13
34 -1 72 -20 56 -44 179 -44 227 0 54 27 136 56 170 l26 31 -21 29 c-63 87
-198 169 -326 196 -65 14 -197 18 -255 8z"/>
<path d="M1648 948 c-17 -14 -39 -103 -31 -125 4 -10 31 -13 109 -13 l103 0
10 38 c19 77 19 83 4 97 -19 19 -171 21 -195 3z"/>
<path d="M1174 891 c-106 -50 -147 -123 -146 -258 1 -55 9 -94 33 -160 17 -49
32 -106 33 -128 l1 -40 -62 -3 -63 -3 0 -120 0 -120 37 -16 c50 -21 154 -13
209 15 144 73 197 271 114 428 -58 111 -49 174 26 174 l34 0 0 124 c0 142 4
136 -100 136 -40 0 -72 -8 -116 -29z"/>
<path d="M442 841 c-32 -32 -57 -79 -67 -126 -3 -16 5 -3 19 29 14 32 40 74
57 93 18 18 30 33 27 33 -4 0 -20 -13 -36 -29z"/>
<path d="M1602 748 c-5 -7 -24 -80 -41 -163 -18 -82 -46 -212 -63 -288 -36
-165 -35 -167 59 -167 62 0 63 0 52 22 -15 28 -6 168 16 229 19 56 62 99 107
108 l33 7 24 116 c13 64 21 124 18 132 -5 13 -24 16 -100 16 -64 0 -98 -4
-105 -12z"/>
<path d="M1382 453 c30 -83 30 -202 1 -266 -27 -57 -12 -53 20 6 33 63 31 181
-5 260 -15 31 -29 57 -32 57 -3 0 4 -26 16 -57z"/>
<path d="M1702 454 c-60 -42 -108 -245 -69 -298 28 -38 145 -29 162 12 10 24
45 183 45 203 0 9 -9 19 -20 22 -15 4 -20 14 -20 41 0 35 -1 36 -38 36 -21 0
-48 -7 -60 -16z m76 -57 c6 -31 -39 -208 -55 -214 -31 -12 -36 13 -19 99 21
107 35 140 55 136 9 -2 17 -11 19 -21z"/>
<path d="M1826 443 c-5 -11 2 -24 19 -37 l26 -21 -25 -118 c-14 -65 -26 -120
-26 -123 0 -2 17 -4 38 -4 l38 0 23 113 c32 149 35 157 66 157 14 0 25 4 25 9
0 5 3 16 6 25 5 14 -6 16 -89 16 -80 0 -96 -3 -101 -17z"/>
<path d="M760 160 l-65 -7 55 -1 c30 0 75 3 100 7 40 8 41 8 10 8 -19 0 -64
-3 -100 -7z"/>
</g>
</svg>
